<mxfile host="app.diagrams.net" agent="Mozilla/5.0 (X11; Linux x86_64) AppleWebKit/537.36 (KHTML, like Gecko) Chrome/134.0.0.0 Safari/537.36" version="26.1.1">
  <diagram name="Page-1" id="XsKjswDsnSn-sBIZdLU6">
    <mxGraphModel dx="957" dy="431" grid="1" gridSize="10" guides="1" tooltips="1" connect="1" arrows="1" fold="1" page="1" pageScale="1" pageWidth="850" pageHeight="1100" math="0" shadow="0">
      <root>
        <mxCell id="0" />
        <mxCell id="1" parent="0" />
        <mxCell id="H57FCgG67ZHqkYWeU3aT-6" value="" style="rounded=0;whiteSpace=wrap;html=1;" vertex="1" parent="1">
          <mxGeometry x="150" y="250" width="580" height="370" as="geometry" />
        </mxCell>
        <mxCell id="H57FCgG67ZHqkYWeU3aT-7" value="VPC (ap-south-1)" style="text;html=1;align=center;verticalAlign=middle;whiteSpace=wrap;rounded=0;" vertex="1" parent="1">
          <mxGeometry x="380" y="250" width="120" height="30" as="geometry" />
        </mxCell>
        <mxCell id="H57FCgG67ZHqkYWeU3aT-8" value="" style="rounded=0;whiteSpace=wrap;html=1;" vertex="1" parent="1">
          <mxGeometry x="190" y="290" width="500" height="300" as="geometry" />
        </mxCell>
        <mxCell id="H57FCgG67ZHqkYWeU3aT-9" value="Subnet" style="text;html=1;align=center;verticalAlign=middle;whiteSpace=wrap;rounded=0;" vertex="1" parent="1">
          <mxGeometry x="380" y="290" width="120" height="30" as="geometry" />
        </mxCell>
        <mxCell id="H57FCgG67ZHqkYWeU3aT-10" value="EC2&lt;div&gt;- Load Balancer&lt;/div&gt;&lt;div&gt;- Frontend&lt;/div&gt;&lt;div&gt;- Backend&lt;/div&gt;&lt;div&gt;- Database&lt;/div&gt;" style="rounded=1;whiteSpace=wrap;html=1;" vertex="1" parent="1">
          <mxGeometry x="327.5" y="370" width="225" height="140" as="geometry" />
        </mxCell>
      </root>
    </mxGraphModel>
  </diagram>
</mxfile>
